<?xml version="1.0" encoding="UTF-8" standalone="no"?>
<svg
   xmlns:dc="http://purl.org/dc/elements/1.1/"
   xmlns:cc="http://creativecommons.org/ns#"
   xmlns:rdf="http://www.w3.org/1999/02/22-rdf-syntax-ns#"
   xmlns:svg="http://www.w3.org/2000/svg"
   xmlns="http://www.w3.org/2000/svg"
   xmlns:sodipodi="http://sodipodi.sourceforge.net/DTD/sodipodi-0.dtd"
   xmlns:inkscape="http://www.inkscape.org/namespaces/inkscape"
   version="1.1"
   id="Layer_1"
   x="0px"
   y="0px"
   viewBox="0 0 148.14 148.87"
   style="enable-background:new 0 0 148.14 148.87;"
   xml:space="preserve"
   sodipodi:docname="Square_2_Logo_Colour_Blue.svg"
   inkscape:version="1.0.1 (3bc2e813f5, 2020-09-07)"><metadata
   id="metadata905"><rdf:RDF><cc:Work
       rdf:about=""><dc:format>image/svg+xml</dc:format><dc:type
         rdf:resource="http://purl.org/dc/dcmitype/StillImage" /></cc:Work></rdf:RDF></metadata><defs
   id="defs903" /><sodipodi:namedview
   pagecolor="#ffffff"
   bordercolor="#666666"
   borderopacity="1"
   objecttolerance="10"
   gridtolerance="10"
   guidetolerance="10"
   inkscape:pageopacity="0"
   inkscape:pageshadow="2"
   inkscape:window-width="1920"
   inkscape:window-height="1017"
   id="namedview901"
   showgrid="false"
   inkscape:zoom="3.9281071"
   inkscape:cx="88.369542"
   inkscape:cy="83.342685"
   inkscape:window-x="-8"
   inkscape:window-y="-8"
   inkscape:window-maximized="1"
   inkscape:current-layer="Layer_1" />
<style
   type="text/css"
   id="style870">
	.st0{fill:#FEBC3B;}
	.st1{fill:#274174;}
</style>
<g
   id="g898">
	<rect
   x="114.93"
   y="0.53"
   class="st0"
   width="33.2"
   height="33.2"
   id="rect872"
   style="fill:#0080f9;fill-opacity:1" />
	<g
   id="g886">
		<path
   d="M20.59,86.47v-2.79c1.98,0.99,3.71,1.48,5.18,1.48c0.86,0,1.59-0.24,2.17-0.71c0.58-0.47,0.87-1.06,0.87-1.77    c0-0.44-0.14-0.88-0.43-1.3c-0.29-0.42-0.95-0.85-1.99-1.28l-1.78-0.76c-1.37-0.57-2.37-1.22-3-1.98    c-0.63-0.74-0.94-1.65-0.94-2.73c0-1.35,0.49-2.47,1.47-3.36s2.43-1.34,4.35-1.34c0.94,0,2.1,0.13,3.48,0.39l0.63,0.12v2.54    c-1.7-0.51-3.06-0.77-4.07-0.77c-0.98,0-1.71,0.21-2.2,0.63s-0.73,0.92-0.73,1.5c0,0.45,0.16,0.86,0.49,1.22    c0.32,0.37,0.9,0.74,1.73,1.1l1.47,0.62c1.97,0.83,3.22,1.66,3.75,2.47c0.54,0.81,0.8,1.7,0.8,2.65c0,0.92-0.25,1.76-0.75,2.55    c-0.5,0.78-1.23,1.39-2.2,1.84c-0.97,0.44-2.05,0.66-3.25,0.66C24.26,87.44,22.58,87.12,20.59,86.47z"
   id="path874" />
		<path
   d="M48.67,93.14v-9.24c-0.62,1.17-1.39,2.06-2.32,2.65c-0.93,0.59-2.01,0.89-3.26,0.89c-2.05,0-3.65-0.76-4.78-2.28    c-1.13-1.52-1.7-3.51-1.7-5.96c0-2.65,0.64-4.86,1.91-6.63c1.27-1.76,3.01-2.65,5.22-2.65c0.65,0,1.26,0.08,1.85,0.23    c0.58,0.15,1.11,0.37,1.56,0.66c0.46,0.28,0.96,0.75,1.52,1.4v-1.9h3.04v22.83H48.67z M48.67,74.29c-1.05-0.93-1.88-1.5-2.49-1.74    c-0.61-0.23-1.27-0.35-1.98-0.35c-1.48,0-2.58,0.62-3.29,1.87c-0.71,1.25-1.07,2.85-1.07,4.82c0,1.82,0.32,3.26,0.95,4.31    c0.63,1.05,1.61,1.57,2.94,1.57c0.84,0,1.68-0.23,2.51-0.69c0.83-0.46,1.64-1.15,2.44-2.07V74.29z"
   id="path876" />
		<path
   d="M67.65,87.05v-3.15c-0.78,1.13-1.68,2-2.7,2.61c-1.02,0.61-2.08,0.92-3.18,0.92c-1.41,0-2.56-0.45-3.45-1.35    c-0.89-0.9-1.33-2.15-1.33-3.75V70.31h3.04v11.04c0,1.16,0.1,1.93,0.31,2.3s0.49,0.66,0.86,0.86c0.37,0.21,0.77,0.31,1.2,0.31    c0.74,0,1.54-0.23,2.41-0.69c0.87-0.46,1.81-1.45,2.83-2.96V70.31h3.04v16.74H67.65z"
   id="path878" />
		<path
   d="M85.55,84.93c-0.92,0.83-1.82,1.46-2.71,1.88c-0.89,0.42-1.76,0.63-2.62,0.63c-1.2,0-2.31-0.39-3.35-1.17    c-1.03-0.78-1.55-1.92-1.55-3.42c0-1.64,0.72-3,2.16-4.08c1.44-1.07,3.74-1.61,6.9-1.61h0.72v-2.03c0-0.8-0.11-1.39-0.33-1.76    c-0.22-0.37-0.56-0.65-1.03-0.86c-0.47-0.21-1.04-0.31-1.73-0.31c-1.6,0-3.34,0.49-5.24,1.48v-2.51c2.07-0.83,4.02-1.25,5.85-1.25    c1,0,1.92,0.16,2.75,0.47c0.84,0.31,1.51,0.81,2.01,1.48s0.75,1.76,0.75,3.25v7.59c0,0.84,0.07,1.41,0.2,1.71    c0.13,0.29,0.32,0.52,0.56,0.67c0.24,0.15,0.52,0.23,0.84,0.23c0.13,0,0.33-0.02,0.59-0.06l0.22,1.68    c-0.69,0.33-1.45,0.49-2.28,0.49c-0.56,0-1.09-0.18-1.6-0.54C86.14,86.54,85.77,85.88,85.55,84.93z M85.1,83.28v-4.33l-0.99-0.03    c-1.63,0-2.99,0.31-4.09,0.93c-1.1,0.62-1.65,1.45-1.65,2.51c0,0.73,0.27,1.35,0.81,1.85c0.54,0.5,1.17,0.76,1.9,0.76    c0.65,0,1.31-0.14,1.98-0.42C83.73,84.25,84.41,83.83,85.1,83.28z"
   id="path880" />
		<path
   d="M94.85,87.05V70.31h3.04v3.13c0.58-1.12,1.32-1.99,2.24-2.6s1.92-0.92,3-0.92c0.31,0,0.63,0.03,0.97,0.08v2.84    c-0.51-0.17-0.98-0.26-1.39-0.26c-0.96,0-1.84,0.29-2.64,0.86C99.26,74,98.53,74.86,97.88,76v11.05H94.85z"
   id="path882" />
		<path
   d="M120.24,86.51c-2.07,0.62-3.83,0.92-5.3,0.92c-2.64,0-4.71-0.88-6.23-2.63s-2.27-3.82-2.27-6.21c0-1.57,0.33-3.07,1-4.49    s1.54-2.47,2.62-3.16c1.08-0.69,2.35-1.03,3.81-1.03c1.96,0,3.52,0.69,4.69,2.08c1.17,1.39,1.75,3.46,1.75,6.23l-0.02,0.92h-10.76    c0.17,1.48,0.49,2.62,0.97,3.42c0.48,0.8,1.12,1.43,1.92,1.87c0.8,0.45,1.82,0.67,3.06,0.67c0.63,0,1.25-0.05,1.88-0.16    c0.62-0.11,1.58-0.39,2.87-0.86V86.51z M109.68,76.88h7.6c0-1.68-0.34-2.87-1.01-3.59c-0.67-0.72-1.53-1.08-2.58-1.08    c-1.2,0-2.13,0.39-2.8,1.16C110.22,74.15,109.81,75.32,109.68,76.88z"
   id="path884" />
	</g>
	<g
   id="g890">
		<path
   d="M125.93,24.27v-2.49c0.95-1.27,1.87-2.3,2.76-3.08l1.28-1.14c0.92-0.81,1.68-1.62,2.28-2.42c0.6-0.8,0.9-1.63,0.9-2.5    c0-0.79-0.25-1.39-0.76-1.82c-0.51-0.43-1.19-0.64-2.06-0.64c-1.15,0-2.48,0.39-4.01,1.17V9.05c1.6-0.59,3.15-0.89,4.64-0.89    c1.65,0,2.98,0.39,4,1.18c1.02,0.79,1.52,1.85,1.52,3.17c0,0.84-0.21,1.62-0.64,2.36c-0.43,0.74-1.32,1.66-2.67,2.75l-1.06,0.85    c-0.47,0.38-0.98,0.86-1.53,1.44c-0.55,0.59-0.92,1.21-1.1,1.87h6.94v2.49H125.93z"
   id="path888"
   style="fill:#ffffff;stroke:#ffffff;stroke-opacity:1;stroke-width:0.24566929;stroke-miterlimit:4;stroke-dasharray:none" />
	</g>
	<polygon
   class="st1"
   points="104.43,8.03 0.1,8.03 0.1,104.44 11.18,104.44 11.18,17.85 104.43,17.85  "
   id="polygon892"
   style="fill:#003c75;fill-opacity:1" />
	<polygon
   class="st1"
   points="130.12,138.06 129.65,138.06 44.22,138.06 44.22,148.87 140.63,148.87 140.63,44.24 130.12,44.24  "
   id="polygon894"
   style="fill:#003c75;fill-opacity:1" />
	<polygon
   class="st0"
   points="11.18,138.06 11.18,115.66 0.1,115.66 0.1,148.87 33.3,148.87 33.3,138.06  "
   id="polygon896"
   style="fill:#0080f9;fill-opacity:1" />
</g>
</svg>
