<svg xmlns="http://www.w3.org/2000/svg" xmlns:xlink="http://www.w3.org/1999/xlink" width="500" zoomAndPan="magnify" viewBox="0 0 375 374.999991" height="500" preserveAspectRatio="xMidYMid meet" version="1.0"><defs><g/><clipPath id="93757bbadf"><path d="M 34.035156 20.933594 L 354.597656 20.933594 L 354.597656 31.140625 L 34.035156 31.140625 Z M 344.597656 31.140625 L 354.597656 31.140625 L 354.597656 331.496094 L 344.597656 331.496094 Z M 34.035156 31.140625 L 44.246094 31.140625 L 44.246094 331.496094 L 34.035156 331.496094 Z M 34.035156 331.496094 L 354.597656 331.496094 L 354.597656 341.492188 L 34.035156 341.492188 Z M 34.035156 331.496094 " clip-rule="nonzero"/></clipPath><clipPath id="557eea9665"><path d="M 34.039062 20.9375 L 354.597656 20.9375 L 354.597656 30.933594 L 34.039062 30.933594 Z M 344.390625 30.933594 L 354.597656 30.933594 L 354.597656 331.285156 L 344.390625 331.285156 Z M 34.039062 30.933594 L 44.035156 30.933594 L 44.035156 331.285156 L 34.039062 331.285156 Z M 34.039062 331.285156 L 354.597656 331.285156 L 354.597656 341.496094 L 34.039062 341.496094 Z M 34.039062 331.285156 " clip-rule="nonzero"/></clipPath><clipPath id="e31fce9742"><path d="M 20.402344 139.757812 L 257.378906 139.757812 L 257.378906 354.0625 L 20.402344 354.0625 Z M 20.402344 139.757812 " clip-rule="nonzero"/></clipPath></defs><rect x="-37.5" width="450" fill="#ffffff" y="-37.499999" height="449.999989" fill-opacity="1"/><rect x="-37.5" width="450" fill="#000000" y="-37.499999" height="449.999989" fill-opacity="1"/><g clip-path="url(#93757bbadf)"><path fill="#ffffff" d="M 354.597656 341.492188 L 34.035156 341.492188 L 34.035156 20.933594 L 354.597656 20.933594 Z M 354.597656 341.492188 " fill-opacity="1" fill-rule="nonzero"/></g><g clip-path="url(#557eea9665)"><path fill="#ffffff" d="M 34.039062 20.9375 L 354.597656 20.9375 L 354.597656 341.496094 L 34.039062 341.496094 Z M 34.039062 20.9375 " fill-opacity="1" fill-rule="nonzero"/></g><g clip-path="url(#e31fce9742)"><path fill="#000000" d="M 20.402344 139.757812 L 257.3125 139.757812 L 257.3125 354.0625 L 20.402344 354.0625 Z M 20.402344 139.757812 " fill-opacity="1" fill-rule="nonzero"/></g><g fill="#ffffff" fill-opacity="1"><g transform="translate(34.038939, 268.828383)"><g><path d="M 16.265625 0.484375 C 13.515625 0.484375 11.101562 -0.00390625 9.03125 -0.984375 C 6.96875 -1.972656 5.359375 -3.363281 4.203125 -5.15625 C 3.046875 -6.957031 2.46875 -9.09375 2.46875 -11.5625 L 7.21875 -11.5625 C 7.21875 -9.207031 8.070312 -7.378906 9.78125 -6.078125 C 11.5 -4.773438 13.640625 -4.125 16.203125 -4.125 C 17.773438 -4.125 19.203125 -4.378906 20.484375 -4.890625 C 21.773438 -5.410156 22.789062 -6.160156 23.53125 -7.140625 C 24.28125 -8.117188 24.65625 -9.269531 24.65625 -10.59375 C 24.65625 -12.050781 24.21875 -13.179688 23.34375 -13.984375 C 22.476562 -14.785156 21.332031 -15.414062 19.90625 -15.875 C 18.476562 -16.34375 16.960938 -16.757812 15.359375 -17.125 C 13.890625 -17.476562 12.441406 -17.867188 11.015625 -18.296875 C 9.585938 -18.722656 8.273438 -19.300781 7.078125 -20.03125 C 5.890625 -20.757812 4.9375 -21.722656 4.21875 -22.921875 C 3.507812 -24.117188 3.15625 -25.644531 3.15625 -27.5 C 3.15625 -30.75 4.3125 -33.300781 6.625 -35.15625 C 8.945312 -37.007812 12.035156 -37.9375 15.890625 -37.9375 C 19.773438 -37.9375 22.832031 -36.9375 25.0625 -34.9375 C 27.289062 -32.9375 28.40625 -30.242188 28.40625 -26.859375 L 23.75 -26.859375 C 23.75 -28.921875 23 -30.53125 21.5 -31.6875 C 20.007812 -32.851562 18.125 -33.4375 15.84375 -33.4375 C 13.550781 -33.4375 11.644531 -32.925781 10.125 -31.90625 C 8.613281 -30.894531 7.859375 -29.5 7.859375 -27.71875 C 7.859375 -26.320312 8.285156 -25.238281 9.140625 -24.46875 C 10.003906 -23.707031 11.117188 -23.101562 12.484375 -22.65625 C 13.859375 -22.207031 15.347656 -21.804688 16.953125 -21.453125 C 18.421875 -21.097656 19.894531 -20.6875 21.375 -20.21875 C 22.851562 -19.757812 24.207031 -19.15625 25.4375 -18.40625 C 26.664062 -17.65625 27.644531 -16.65625 28.375 -15.40625 C 29.113281 -14.15625 29.484375 -12.566406 29.484375 -10.640625 C 29.484375 -8.285156 28.898438 -6.28125 27.734375 -4.625 C 26.578125 -2.96875 25 -1.703125 23 -0.828125 C 21.007812 0.046875 18.765625 0.484375 16.265625 0.484375 Z M 16.265625 0.484375 "/></g></g></g><g fill="#ffffff" fill-opacity="1"><g transform="translate(69.562825, 268.828383)"><g><path d="M 42.421875 4.4375 L 36.703125 4.4375 L 31.515625 -1.546875 C 30.160156 -0.835938 28.695312 -0.296875 27.125 0.078125 C 25.550781 0.453125 23.894531 0.640625 22.15625 0.640625 C 19.332031 0.640625 16.722656 0.148438 14.328125 -0.828125 C 11.941406 -1.804688 9.863281 -3.160156 8.09375 -4.890625 C 6.332031 -6.617188 4.96875 -8.660156 4 -11.015625 C 3.039062 -13.367188 2.5625 -15.9375 2.5625 -18.71875 C 2.5625 -21.46875 3.039062 -24.019531 4 -26.375 C 4.96875 -28.726562 6.332031 -30.78125 8.09375 -32.53125 C 9.863281 -34.28125 11.941406 -35.644531 14.328125 -36.625 C 16.722656 -37.601562 19.332031 -38.09375 22.15625 -38.09375 C 25 -38.09375 27.613281 -37.601562 30 -36.625 C 32.394531 -35.644531 34.46875 -34.28125 36.21875 -32.53125 C 37.96875 -30.78125 39.332031 -28.734375 40.3125 -26.390625 C 41.289062 -24.054688 41.78125 -21.5 41.78125 -18.71875 C 41.78125 -15.6875 41.191406 -12.90625 40.015625 -10.375 C 38.835938 -7.84375 37.234375 -5.703125 35.203125 -3.953125 Z M 22.15625 -3.953125 C 24.363281 -3.953125 26.429688 -4.363281 28.359375 -5.1875 L 19.578125 -15.40625 L 25.359375 -15.40625 L 32.09375 -7.546875 C 33.59375 -8.859375 34.78125 -10.476562 35.65625 -12.40625 C 36.53125 -14.332031 36.96875 -16.4375 36.96875 -18.71875 C 36.96875 -21.539062 36.320312 -24.066406 35.03125 -26.296875 C 33.75 -28.523438 31.992188 -30.28125 29.765625 -31.5625 C 27.535156 -32.84375 25 -33.484375 22.15625 -33.484375 C 19.332031 -33.484375 16.804688 -32.832031 14.578125 -31.53125 C 12.347656 -30.226562 10.59375 -28.460938 9.3125 -26.234375 C 8.03125 -24.003906 7.390625 -21.5 7.390625 -18.71875 C 7.390625 -15.90625 8.03125 -13.390625 9.3125 -11.171875 C 10.59375 -8.960938 12.347656 -7.207031 14.578125 -5.90625 C 16.804688 -4.601562 19.332031 -3.953125 22.15625 -3.953125 Z M 22.15625 -3.953125 "/></g></g></g><g fill="#ffffff" fill-opacity="1"><g transform="translate(117.498234, 268.828383)"><g><path d="M 19.421875 0.640625 C 16.597656 0.640625 14.070312 0.015625 11.84375 -1.234375 C 9.613281 -2.484375 7.859375 -4.203125 6.578125 -6.390625 C 5.296875 -8.585938 4.65625 -11.113281 4.65625 -13.96875 L 4.65625 -37.453125 L 9.421875 -37.453125 L 9.421875 -14.28125 C 9.421875 -12.25 9.847656 -10.457031 10.703125 -8.90625 C 11.554688 -7.351562 12.734375 -6.140625 14.234375 -5.265625 C 15.734375 -4.390625 17.460938 -3.953125 19.421875 -3.953125 C 21.347656 -3.953125 23.054688 -4.390625 24.546875 -5.265625 C 26.046875 -6.140625 27.210938 -7.351562 28.046875 -8.90625 C 28.890625 -10.457031 29.3125 -12.25 29.3125 -14.28125 L 29.3125 -37.453125 L 34.078125 -37.453125 L 34.078125 -13.96875 C 34.078125 -11.113281 33.4375 -8.585938 32.15625 -6.390625 C 30.875 -4.203125 29.125 -2.484375 26.90625 -1.234375 C 24.695312 0.015625 22.203125 0.640625 19.421875 0.640625 Z M 19.421875 0.640625 "/></g></g></g><g fill="#ffffff" fill-opacity="1"><g transform="translate(159.816354, 268.828383)"><g><path d="M 31.296875 0 L 27.546875 -8.984375 L 9.578125 -8.984375 L 5.890625 0 L 0.90625 0 L 16.203125 -37.453125 L 20.59375 -37.453125 L 36.375 0 Z M 18.515625 -30.96875 L 11.34375 -13.265625 L 25.78125 -13.265625 Z M 18.515625 -30.96875 "/></g></g></g><g fill="#ffffff" fill-opacity="1"><g transform="translate(200.690035, 268.828383)"><g><path d="M 26.90625 0 L 18.34375 -14.65625 L 9.796875 -14.65625 L 9.796875 0 L 5.140625 0 L 5.140625 -37.453125 L 19.3125 -37.453125 C 21.664062 -37.453125 23.757812 -36.957031 25.59375 -35.96875 C 27.4375 -34.988281 28.882812 -33.632812 29.9375 -31.90625 C 30.988281 -30.175781 31.515625 -28.207031 31.515625 -26 C 31.515625 -23.363281 30.753906 -21.082031 29.234375 -19.15625 C 27.722656 -17.226562 25.734375 -15.90625 23.265625 -15.1875 L 32.203125 0 Z M 9.796875 -33.015625 L 9.796875 -19.09375 L 19.09375 -19.09375 C 21.382812 -19.09375 23.234375 -19.742188 24.640625 -21.046875 C 26.046875 -22.347656 26.75 -24.015625 26.75 -26.046875 C 26.75 -28.046875 26.046875 -29.707031 24.640625 -31.03125 C 23.234375 -32.351562 21.382812 -33.015625 19.09375 -33.015625 Z M 9.796875 -33.015625 "/></g></g></g><g fill="#ffffff" fill-opacity="1"><g transform="translate(238.728315, 268.828383)"><g><path d="M 9.796875 -4.5 L 26.90625 -4.5 L 26.90625 0 L 5.140625 0 L 5.140625 -37.453125 L 26.328125 -37.453125 L 26.328125 -33.015625 L 9.796875 -33.015625 L 9.796875 -21.40625 L 24.9375 -21.40625 L 24.9375 -17.0625 L 9.796875 -17.0625 Z M 9.796875 -4.5 "/></g></g></g><g fill="#ffffff" fill-opacity="1"><g transform="translate(271.898283, 268.828383)"><g/></g></g><g fill="#ffffff" fill-opacity="1"><g transform="translate(289.500335, 268.828383)"><g><path d="M 10.640625 -4.21875 L 25.84375 -4.21875 L 25.84375 0 L 1.921875 0 L 1.921875 -1.4375 C 5.171875 -4.832031 7.882812 -7.722656 10.0625 -10.109375 C 12.238281 -12.503906 13.992188 -14.519531 15.328125 -16.15625 C 16.660156 -17.800781 17.664062 -19.179688 18.34375 -20.296875 C 19.019531 -21.421875 19.472656 -22.421875 19.703125 -23.296875 C 19.941406 -24.171875 20.0625 -25.054688 20.0625 -25.953125 C 20.0625 -27.765625 19.476562 -29.222656 18.3125 -30.328125 C 17.15625 -31.441406 15.632812 -32 13.75 -32 C 11.75 -32 10.148438 -31.4375 8.953125 -30.3125 C 7.765625 -29.1875 7.171875 -27.710938 7.171875 -25.890625 L 7.171875 -25.03125 L 2.78125 -25.03125 L 2.78125 -25.890625 C 2.78125 -27.960938 3.242188 -29.773438 4.171875 -31.328125 C 5.097656 -32.878906 6.378906 -34.082031 8.015625 -34.9375 C 9.660156 -35.789062 11.570312 -36.21875 13.75 -36.21875 C 15.851562 -36.21875 17.71875 -35.78125 19.34375 -34.90625 C 20.96875 -34.03125 22.234375 -32.816406 23.140625 -31.265625 C 24.046875 -29.710938 24.5 -27.941406 24.5 -25.953125 C 24.5 -24.703125 24.328125 -23.476562 23.984375 -22.28125 C 23.648438 -21.082031 23.007812 -19.707031 22.0625 -18.15625 C 21.125 -16.613281 19.734375 -14.726562 17.890625 -12.5 C 16.054688 -10.269531 13.640625 -7.507812 10.640625 -4.21875 Z M 10.640625 -4.21875 "/></g></g></g><g fill="#ffffff" fill-opacity="1"><g transform="translate(34.522633, 334.673332)"><g><path d="M 17.59375 -37.453125 C 20.34375 -37.453125 22.875 -36.988281 25.1875 -36.0625 C 27.507812 -35.132812 29.519531 -33.832031 31.21875 -32.15625 C 32.914062 -30.476562 34.234375 -28.5 35.171875 -26.21875 C 36.117188 -23.9375 36.59375 -21.4375 36.59375 -18.71875 C 36.59375 -16.007812 36.117188 -13.515625 35.171875 -11.234375 C 34.234375 -8.953125 32.914062 -6.972656 31.21875 -5.296875 C 29.519531 -3.617188 27.507812 -2.316406 25.1875 -1.390625 C 22.875 -0.460938 20.34375 0 17.59375 0 L 5.140625 0 L 5.140625 -37.453125 Z M 17.4375 -4.390625 C 20.257812 -4.390625 22.75 -5.007812 24.90625 -6.25 C 27.0625 -7.5 28.742188 -9.203125 29.953125 -11.359375 C 31.171875 -13.523438 31.78125 -15.976562 31.78125 -18.71875 C 31.78125 -21.5 31.171875 -23.957031 29.953125 -26.09375 C 28.742188 -28.238281 27.0625 -29.9375 24.90625 -31.1875 C 22.75 -32.4375 20.257812 -33.0625 17.4375 -33.0625 L 9.796875 -33.0625 L 9.796875 -4.390625 Z M 17.4375 -4.390625 "/></g></g></g><g fill="#ffffff" fill-opacity="1"><g transform="translate(74.646434, 334.673332)"><g><path d="M 5.140625 0 L 5.140625 -37.453125 L 9.796875 -37.453125 L 9.796875 0 Z M 5.140625 0 "/></g></g></g><g fill="#ffffff" fill-opacity="1"><g transform="translate(90.48215, 334.673332)"><g><path d="M 20.21875 -18.5625 L 40.28125 -18.5625 C 40.207031 -14.820312 39.367188 -11.503906 37.765625 -8.609375 C 36.160156 -5.722656 33.957031 -3.457031 31.15625 -1.8125 C 28.363281 -0.175781 25.164062 0.640625 21.5625 0.640625 C 18.8125 0.640625 16.273438 0.160156 13.953125 -0.796875 C 11.640625 -1.765625 9.632812 -3.117188 7.9375 -4.859375 C 6.25 -6.609375 4.929688 -8.660156 3.984375 -11.015625 C 3.035156 -13.367188 2.5625 -15.9375 2.5625 -18.71875 C 2.5625 -21.5 3.035156 -24.066406 3.984375 -26.421875 C 4.929688 -28.773438 6.25 -30.816406 7.9375 -32.546875 C 9.632812 -34.285156 11.632812 -35.632812 13.9375 -36.59375 C 16.238281 -37.550781 18.742188 -38.03125 21.453125 -38.03125 C 24.484375 -38.03125 27.273438 -37.441406 29.828125 -36.265625 C 32.378906 -35.085938 34.523438 -33.472656 36.265625 -31.421875 C 38.015625 -29.378906 39.160156 -27.035156 39.703125 -24.390625 L 34.875 -24.390625 C 34.34375 -26.179688 33.425781 -27.753906 32.125 -29.109375 C 30.820312 -30.460938 29.269531 -31.519531 27.46875 -32.28125 C 25.664062 -33.050781 23.695312 -33.4375 21.5625 -33.4375 C 18.8125 -33.4375 16.363281 -32.800781 14.21875 -31.53125 C 12.082031 -30.269531 10.410156 -28.53125 9.203125 -26.3125 C 7.992188 -24.101562 7.390625 -21.570312 7.390625 -18.71875 C 7.390625 -15.832031 7.984375 -13.273438 9.171875 -11.046875 C 10.367188 -8.816406 12.023438 -7.078125 14.140625 -5.828125 C 16.265625 -4.578125 18.738281 -3.953125 21.5625 -3.953125 C 23.875 -3.953125 25.972656 -4.378906 27.859375 -5.234375 C 29.753906 -6.097656 31.332031 -7.285156 32.59375 -8.796875 C 33.863281 -10.316406 34.734375 -12.09375 35.203125 -14.125 L 20.21875 -14.125 Z M 20.21875 -18.5625 "/></g></g></g><g fill="#ffffff" fill-opacity="1"><g transform="translate(134.08333, 334.673332)"><g><path d="M 5.140625 0 L 5.140625 -37.453125 L 9.796875 -37.453125 L 9.796875 0 Z M 5.140625 0 "/></g></g></g><g fill="#ffffff" fill-opacity="1"><g transform="translate(149.919049, 334.673332)"><g><path d="M 28.625 -37.453125 L 28.625 -33.0625 L 17.234375 -33.0625 L 17.234375 0 L 12.515625 0 L 12.515625 -33.0625 L 1.125 -33.0625 L 1.125 -37.453125 Z M 28.625 -37.453125 "/></g></g></g><g fill="#ffffff" fill-opacity="1"><g transform="translate(180.573722, 334.673332)"><g><path d="M 31.296875 0 L 27.546875 -8.984375 L 9.578125 -8.984375 L 5.890625 0 L 0.90625 0 L 16.203125 -37.453125 L 20.59375 -37.453125 L 36.375 0 Z M 18.515625 -30.96875 L 11.34375 -13.265625 L 25.78125 -13.265625 Z M 18.515625 -30.96875 "/></g></g></g><g fill="#ffffff" fill-opacity="1"><g transform="translate(218.771605, 334.673332)"><g><path d="M 9.796875 -4.390625 L 26.265625 -4.390625 L 26.265625 0 L 5.140625 0 L 5.140625 -37.453125 L 9.796875 -37.453125 Z M 9.796875 -4.390625 "/></g></g></g><path stroke-linecap="butt" transform="matrix(0.00000000321799, 1.843771, -1.843771, 0.00000000321799, 45.093945, 20.94337)" fill="none" stroke-linejoin="miter" d="M 0.00105372 3.000072 L 101.883379 3.000072 " stroke="#ffffff" stroke-width="6" stroke-opacity="1" stroke-miterlimit="4"/></svg>